<svg width="64" height="64" viewBox="0 0 64 64" fill="none" xmlns="http://www.w3.org/2000/svg">
<g clip-path="url(#clip0_101_2)">
<path d="M54 23.52C52.88 23.52 52 22.64 52 21.52V6C52 4.88 51.12 4 50 4H14C12.88 4 12 4.88 12 6V14C12 15.12 11.12 16 10 16C8.88 16 8 15.12 8 14V6C8 2.68 10.68 0 14 0H50C53.32 0 56 2.68 56 6V21.52C56 22.64 55.12 23.52 54 23.52Z" fill="#213547"/>
<path d="M58 64H6C2.68 64 0 61.32 0 58V18C0 14.68 2.68 12 6 12H25C25.64 12 26.24 12.28 26.6 12.8L32 20H58C61.32 20 64 22.68 64 26V58C64 61.32 61.32 64 58 64ZM6 16C4.88 16 4 16.88 4 18V58C4 59.12 4.88 60 6 60H58C59.12 60 60 59.12 60 58V26C60 24.88 59.12 24 58 24H31C30.6884 24.0065 30.3799 23.9371 30.1011 23.7977C29.8224 23.6583 29.5817 23.4532 29.4 23.2L24 16H6Z" fill="#213547"/>
<path d="M22 52H14C12.88 52 12 51.12 12 50C12 48.88 12.88 48 14 48H22C23.12 48 24 48.88 24 50C24 51.12 23.12 52 22 52Z" fill="#213547"/>
</g>
<defs>
<clipPath id="clip0_101_2">
<rect width="64" height="64" fill="white"/>
</clipPath>
</defs>
</svg>
